<svg width="100" height="33" viewBox="0 0 100 33" fill="none" xmlns="http://www.w3.org/2000/svg">
<path d="M0.78101 21.2124C0.543765 21.355 0.465653 21.6625 0.606548 21.8992L2.90254 25.7572C3.04343 25.994 3.34997 26.0703 3.58722 25.9277C3.82447 25.7852 3.90258 25.4777 3.76169 25.2409L1.7208 21.8116L5.1574 19.7466C5.39465 19.604 5.47276 19.2965 5.33187 19.0598C5.19097 18.8231 4.88443 18.7467 4.64719 18.8893L0.78101 21.2124ZM90.1858 9.85909C75.0925 19.4124 62.6687 24.6685 49.1262 26.3298C35.5745 27.9923 20.8557 26.0613 1.15949 21.1554L0.912752 22.1267C20.6495 27.0426 35.5088 29.0079 49.2417 27.3232C62.9837 25.6373 75.5508 20.3029 90.7159 10.7041L90.1858 9.85909Z" fill="#8B5ACC"/>
<circle cx="92.999" cy="6.9276" r="5.5" transform="rotate(-4.71508 92.999 6.9276)" fill="#8B5ACC"/>
</svg>
