<svg width="324" height="298" viewBox="0 0 324 298" fill="none" xmlns="http://www.w3.org/2000/svg">
<g filter="url(#filter0_d_32:220)">
<rect x="6" y="15" width="308" height="273" rx="20" fill="white"/>
</g>
<path d="M83.442 95H82.14V87.692L77.1 95H76.05V85.2H77.352V92.522L82.392 85.2H83.442V95ZM88.7023 95.182C87.6476 95.182 86.7703 94.832 86.0703 94.132C85.3703 93.4227 85.0203 92.5453 85.0203 91.5C85.0203 90.4547 85.3703 89.582 86.0703 88.882C86.7703 88.1727 87.6476 87.818 88.7023 87.818C89.3929 87.818 90.0136 87.986 90.5643 88.322C91.1149 88.6487 91.5256 89.092 91.7963 89.652L90.7743 90.24C90.5969 89.8667 90.3216 89.568 89.9483 89.344C89.5843 89.12 89.1689 89.008 88.7023 89.008C88.0023 89.008 87.4143 89.246 86.9383 89.722C86.4716 90.2073 86.2383 90.8 86.2383 91.5C86.2383 92.1907 86.4716 92.7787 86.9383 93.264C87.4143 93.74 88.0023 93.978 88.7023 93.978C89.1689 93.978 89.5889 93.8707 89.9623 93.656C90.3356 93.432 90.6203 93.1333 90.8163 92.76L91.8523 93.362C91.5443 93.922 91.1103 94.3653 90.5503 94.692C89.9903 95.0187 89.3743 95.182 88.7023 95.182ZM92.1615 88H98.1535V89.176H95.7735V95H94.5555V89.176H92.1615V88ZM104.855 94.118C104.146 94.8273 103.273 95.182 102.237 95.182C101.201 95.182 100.329 94.8273 99.6194 94.118C98.9101 93.4087 98.5554 92.536 98.5554 91.5C98.5554 90.464 98.9101 89.5913 99.6194 88.882C100.329 88.1727 101.201 87.818 102.237 87.818C103.273 87.818 104.146 88.1727 104.855 88.882C105.574 89.6007 105.933 90.4733 105.933 91.5C105.933 92.5267 105.574 93.3993 104.855 94.118ZM102.237 93.992C102.937 93.992 103.525 93.754 104.001 93.278C104.477 92.802 104.715 92.2093 104.715 91.5C104.715 90.7907 104.477 90.198 104.001 89.722C103.525 89.246 102.937 89.008 102.237 89.008C101.547 89.008 100.963 89.246 100.487 89.722C100.011 90.198 99.7734 90.7907 99.7734 91.5C99.7734 92.2093 100.011 92.802 100.487 93.278C100.963 93.754 101.547 93.992 102.237 93.992ZM111.629 91.346V88H112.847V95H111.629V92.48C111.06 92.7227 110.43 92.844 109.739 92.844C108.834 92.844 108.138 92.6293 107.653 92.2C107.168 91.7707 106.925 91.1453 106.925 90.324V88H108.143V90.254C108.143 90.7673 108.278 91.1407 108.549 91.374C108.829 91.598 109.254 91.71 109.823 91.71C110.467 91.71 111.069 91.5887 111.629 91.346ZM119.541 90.912V88H120.759V95H119.541V92.074H115.915V95H114.697V88H115.915V90.912H119.541ZM123.817 92.914L127.695 88H128.675V95H127.471V90.086L123.593 95H122.613V88H123.817V92.914ZM132.993 91.388L136.451 95H134.939L131.747 91.682V95H130.529V88H131.747V91.094L134.771 88H136.339L132.993 91.388ZM138.788 92.914L142.666 88H143.646V95H142.442V90.086L138.564 95H137.584V88H138.788V92.914ZM153.41 95.14V97.8H152.206V95.14C151.114 95.0187 150.242 94.622 149.588 93.95C148.935 93.2873 148.608 92.4707 148.608 91.5C148.608 90.5293 148.935 89.7127 149.588 89.05C150.242 88.378 151.114 87.9813 152.206 87.86V85.2H153.41V87.86C154.502 87.9813 155.375 88.378 156.028 89.05C156.682 89.7127 157.008 90.5293 157.008 91.5C157.008 92.4707 156.682 93.2873 156.028 93.95C155.375 94.622 154.502 95.0187 153.41 95.14ZM149.812 91.5C149.812 92.1533 150.022 92.704 150.442 93.152C150.872 93.5907 151.46 93.8613 152.206 93.964V89.036C151.469 89.1293 150.886 89.4 150.456 89.848C150.027 90.2867 149.812 90.8373 149.812 91.5ZM153.41 89.036V93.964C154.148 93.8613 154.726 93.5907 155.146 93.152C155.576 92.704 155.79 92.1533 155.79 91.5C155.79 90.8467 155.576 90.3007 155.146 89.862C154.726 89.414 154.148 89.1387 153.41 89.036ZM159.651 92.914L163.529 88H164.509V95H163.305V90.086L159.427 95H158.447V88H159.651V92.914ZM171.207 90.912V88H172.425V95H171.207V92.074H167.581V95H166.363V88H167.581V90.912H171.207ZM180.075 89.204V88H181.293V95H180.075V93.796C179.478 94.72 178.596 95.182 177.429 95.182C176.44 95.182 175.605 94.8273 174.923 94.118C174.233 93.3993 173.887 92.5267 173.887 91.5C173.887 90.4827 174.233 89.6147 174.923 88.896C175.614 88.1773 176.449 87.818 177.429 87.818C178.596 87.818 179.478 88.28 180.075 89.204ZM177.583 94.006C178.293 94.006 178.885 93.768 179.361 93.292C179.837 92.7973 180.075 92.2 180.075 91.5C180.075 90.7907 179.837 90.198 179.361 89.722C178.885 89.2367 178.293 88.994 177.583 88.994C176.883 88.994 176.295 89.2367 175.819 89.722C175.343 90.198 175.105 90.7907 175.105 91.5C175.105 92.2 175.343 92.7973 175.819 93.292C176.295 93.768 176.883 94.006 177.583 94.006ZM187.983 90.912V88H189.201V95H187.983V92.074H184.357V95H183.139V88H184.357V90.912H187.983ZM194.345 95.182C193.29 95.182 192.413 94.832 191.713 94.132C191.013 93.4227 190.663 92.5453 190.663 91.5C190.663 90.4547 191.013 89.582 191.713 88.882C192.413 88.1727 193.29 87.818 194.345 87.818C195.036 87.818 195.656 87.986 196.207 88.322C196.758 88.6487 197.168 89.092 197.439 89.652L196.417 90.24C196.24 89.8667 195.964 89.568 195.591 89.344C195.227 89.12 194.812 89.008 194.345 89.008C193.645 89.008 193.057 89.246 192.581 89.722C192.114 90.2073 191.881 90.8 191.881 91.5C191.881 92.1907 192.114 92.7787 192.581 93.264C193.057 93.74 193.645 93.978 194.345 93.978C194.812 93.978 195.232 93.8707 195.605 93.656C195.978 93.432 196.263 93.1333 196.459 92.76L197.495 93.362C197.187 93.922 196.753 94.3653 196.193 94.692C195.633 95.0187 195.017 95.182 194.345 95.182ZM199.915 92.914L203.793 88H204.773V95H203.569V90.086L199.691 95H198.711V88H199.915V92.914ZM210.491 87.818C211.471 87.818 212.306 88.1773 212.997 88.896C213.688 89.6147 214.033 90.4827 214.033 91.5C214.033 92.5267 213.688 93.3993 212.997 94.118C212.316 94.8273 211.48 95.182 210.491 95.182C209.334 95.182 208.452 94.72 207.845 93.796V97.8H206.627V88H207.845V89.204C208.452 88.28 209.334 87.818 210.491 87.818ZM210.337 94.006C211.037 94.006 211.625 93.768 212.101 93.292C212.577 92.7973 212.815 92.2 212.815 91.5C212.815 90.7907 212.577 90.198 212.101 89.722C211.625 89.2367 211.037 88.994 210.337 88.994C209.628 88.994 209.035 89.2367 208.559 89.722C208.083 90.198 207.845 90.7907 207.845 91.5C207.845 92.2 208.083 92.7973 208.559 93.292C209.035 93.768 209.628 94.006 210.337 94.006ZM221.395 94.118C220.685 94.8273 219.813 95.182 218.777 95.182C217.741 95.182 216.868 94.8273 216.159 94.118C215.449 93.4087 215.095 92.536 215.095 91.5C215.095 90.464 215.449 89.5913 216.159 88.882C216.868 88.1727 217.741 87.818 218.777 87.818C219.813 87.818 220.685 88.1727 221.395 88.882C222.113 89.6007 222.472 90.4733 222.472 91.5C222.472 92.5267 222.113 93.3993 221.395 94.118ZM218.777 93.992C219.477 93.992 220.065 93.754 220.541 93.278C221.017 92.802 221.255 92.2093 221.255 91.5C221.255 90.7907 221.017 90.198 220.541 89.722C220.065 89.246 219.477 89.008 218.777 89.008C218.086 89.008 217.503 89.246 217.027 89.722C216.551 90.198 216.312 90.7907 216.312 91.5C216.312 92.2093 216.551 92.802 217.027 93.278C217.503 93.754 218.086 93.992 218.777 93.992ZM228.57 91.402C229.289 91.7007 229.648 92.242 229.648 93.026C229.648 93.6233 229.452 94.104 229.06 94.468C228.668 94.8227 228.118 95 227.408 95H223.908V88H227.128C227.819 88 228.356 88.1727 228.738 88.518C229.13 88.8633 229.326 89.3253 229.326 89.904C229.326 90.576 229.074 91.0753 228.57 91.402ZM227.072 89.092H225.098V90.926H227.072C227.782 90.926 228.136 90.6133 228.136 89.988C228.136 89.3907 227.782 89.092 227.072 89.092ZM225.098 93.894H227.338C227.693 93.894 227.964 93.81 228.15 93.642C228.346 93.474 228.444 93.236 228.444 92.928C228.444 92.6387 228.346 92.4147 228.15 92.256C227.964 92.088 227.693 92.004 227.338 92.004H225.098V93.894ZM236.759 89.204V88H237.977V95H236.759V93.796C236.162 94.72 235.28 95.182 234.113 95.182C233.124 95.182 232.288 94.8273 231.607 94.118C230.916 93.3993 230.571 92.5267 230.571 91.5C230.571 90.4827 230.916 89.6147 231.607 88.896C232.298 88.1773 233.133 87.818 234.113 87.818C235.28 87.818 236.162 88.28 236.759 89.204ZM234.267 94.006C234.976 94.006 235.569 93.768 236.045 93.292C236.521 92.7973 236.759 92.2 236.759 91.5C236.759 90.7907 236.521 90.198 236.045 89.722C235.569 89.2367 234.976 88.994 234.267 88.994C233.567 88.994 232.979 89.2367 232.503 89.722C232.027 90.198 231.789 90.7907 231.789 91.5C231.789 92.2 232.027 92.7973 232.503 93.292C232.979 93.768 233.567 94.006 234.267 94.006ZM244.666 90.912V88H245.884V95H244.666V92.074H241.04V95H239.822V88H241.04V90.912H244.666ZM248.942 92.914L252.82 88H253.8V95H252.596V90.086L248.718 95H247.738V88H248.942V92.914ZM257.908 88H260.89V95H259.686V92.48H258.664L256.704 95H255.22L257.264 92.41C256.732 92.2793 256.303 92.018 255.976 91.626C255.659 91.234 255.5 90.7767 255.5 90.254C255.5 89.61 255.729 89.0733 256.186 88.644C256.644 88.2147 257.218 88 257.908 88ZM257.95 91.388H259.686V89.134H257.95C257.596 89.134 257.297 89.2413 257.054 89.456C256.821 89.6613 256.704 89.932 256.704 90.268C256.704 90.5947 256.821 90.8653 257.054 91.08C257.297 91.2853 257.596 91.388 257.95 91.388ZM80.586 109.402C81.3047 109.701 81.664 110.242 81.664 111.026C81.664 111.623 81.468 112.104 81.076 112.468C80.684 112.823 80.1333 113 79.424 113H75.924V106H79.144C79.8347 106 80.3713 106.173 80.754 106.518C81.146 106.863 81.342 107.325 81.342 107.904C81.342 108.576 81.09 109.075 80.586 109.402ZM79.088 107.092H77.114V108.926H79.088C79.7973 108.926 80.152 108.613 80.152 107.988C80.152 107.391 79.7973 107.092 79.088 107.092ZM77.114 111.894H79.354C79.7087 111.894 79.9793 111.81 80.166 111.642C80.362 111.474 80.46 111.236 80.46 110.928C80.46 110.639 80.362 110.415 80.166 110.256C79.9793 110.088 79.7087 110.004 79.354 110.004H77.114V111.894ZM89.2647 107.96L93.7307 113H92.1347L87.9067 108.296V113H86.6047V103.2H87.9067V107.624L91.9947 103.2H93.5907L89.2647 107.96ZM99.9309 107.204V106H101.149V113H99.9309V111.796C99.3336 112.72 98.4516 113.182 97.2849 113.182C96.2956 113.182 95.4603 112.827 94.7789 112.118C94.0883 111.399 93.7429 110.527 93.7429 109.5C93.7429 108.483 94.0883 107.615 94.7789 106.896C95.4696 106.177 96.3049 105.818 97.2849 105.818C98.4516 105.818 99.3336 106.28 99.9309 107.204ZM97.4389 112.006C98.1483 112.006 98.7409 111.768 99.2169 111.292C99.6929 110.797 99.9309 110.2 99.9309 109.5C99.9309 108.791 99.6929 108.198 99.2169 107.722C98.7409 107.237 98.1483 106.994 97.4389 106.994C96.7389 106.994 96.1509 107.237 95.6749 107.722C95.1989 108.198 94.9609 108.791 94.9609 109.5C94.9609 110.2 95.1989 110.797 95.6749 111.292C96.1509 111.768 96.7389 112.006 97.4389 112.006ZM106.774 109.416C107.549 109.743 107.936 110.298 107.936 111.082C107.936 111.689 107.698 112.193 107.222 112.594C106.746 112.986 106.088 113.182 105.248 113.182C103.848 113.182 102.91 112.622 102.434 111.502L103.456 110.9C103.718 111.665 104.32 112.048 105.262 112.048C105.72 112.048 106.079 111.95 106.34 111.754C106.602 111.558 106.732 111.297 106.732 110.97C106.732 110.69 106.625 110.461 106.41 110.284C106.205 110.107 105.925 110.018 105.57 110.018H104.548V108.912H105.304C105.659 108.912 105.934 108.828 106.13 108.66C106.326 108.483 106.424 108.245 106.424 107.946C106.424 107.638 106.308 107.395 106.074 107.218C105.841 107.031 105.528 106.938 105.136 106.938C104.352 106.938 103.82 107.269 103.54 107.932L102.546 107.358C103.041 106.331 103.904 105.818 105.136 105.818C105.883 105.818 106.48 106.014 106.928 106.406C107.386 106.789 107.614 107.269 107.614 107.848C107.614 108.557 107.334 109.08 106.774 109.416ZM115.052 107.204V106H116.27V113H115.052V111.796C114.455 112.72 113.573 113.182 112.406 113.182C111.417 113.182 110.581 112.827 109.9 112.118C109.209 111.399 108.864 110.527 108.864 109.5C108.864 108.483 109.209 107.615 109.9 106.896C110.591 106.177 111.426 105.818 112.406 105.818C113.573 105.818 114.455 106.28 115.052 107.204ZM112.56 112.006C113.269 112.006 113.862 111.768 114.338 111.292C114.814 110.797 115.052 110.2 115.052 109.5C115.052 108.791 114.814 108.198 114.338 107.722C113.862 107.237 113.269 106.994 112.56 106.994C111.86 106.994 111.272 107.237 110.796 107.722C110.32 108.198 110.082 108.791 110.082 109.5C110.082 110.2 110.32 110.797 110.796 111.292C111.272 111.768 111.86 112.006 112.56 112.006ZM121.517 109.388L124.191 113H122.763L120.803 110.354L118.829 113H117.401L120.089 109.402L117.555 106H118.997L120.803 108.436L122.609 106H124.037L121.517 109.388ZM128.118 113.182C127.064 113.182 126.186 112.832 125.486 112.132C124.786 111.423 124.436 110.545 124.436 109.5C124.436 108.455 124.786 107.582 125.486 106.882C126.186 106.173 127.064 105.818 128.118 105.818C128.809 105.818 129.43 105.986 129.98 106.322C130.531 106.649 130.942 107.092 131.212 107.652L130.19 108.24C130.013 107.867 129.738 107.568 129.364 107.344C129 107.12 128.585 107.008 128.118 107.008C127.418 107.008 126.83 107.246 126.354 107.722C125.888 108.207 125.654 108.8 125.654 109.5C125.654 110.191 125.888 110.779 126.354 111.264C126.83 111.74 127.418 111.978 128.118 111.978C128.585 111.978 129.005 111.871 129.378 111.656C129.752 111.432 130.036 111.133 130.232 110.76L131.268 111.362C130.96 111.922 130.526 112.365 129.966 112.692C129.406 113.019 128.79 113.182 128.118 113.182ZM131.578 106H137.57V107.176H135.19V113H133.972V107.176H131.578V106ZM144.159 107.204V106H145.377V113H144.159V111.796C143.562 112.72 142.68 113.182 141.513 113.182C140.524 113.182 139.689 112.827 139.007 112.118C138.317 111.399 137.971 110.527 137.971 109.5C137.971 108.483 138.317 107.615 139.007 106.896C139.698 106.177 140.533 105.818 141.513 105.818C142.68 105.818 143.562 106.28 144.159 107.204ZM141.667 112.006C142.377 112.006 142.969 111.768 143.445 111.292C143.921 110.797 144.159 110.2 144.159 109.5C144.159 108.791 143.921 108.198 143.445 107.722C142.969 107.237 142.377 106.994 141.667 106.994C140.967 106.994 140.379 107.237 139.903 107.722C139.427 108.198 139.189 108.791 139.189 109.5C139.189 110.2 139.427 110.797 139.903 111.292C140.379 111.768 140.967 112.006 141.667 112.006ZM152.067 108.912V106H153.285V113H152.067V110.074H148.441V113H147.223V106H148.441V108.912H152.067ZM161.859 110.06H155.993C156.114 110.676 156.399 111.161 156.847 111.516C157.295 111.861 157.855 112.034 158.527 112.034C159.451 112.034 160.123 111.693 160.543 111.012L161.579 111.6C160.888 112.655 159.862 113.182 158.499 113.182C157.398 113.182 156.492 112.837 155.783 112.146C155.092 111.437 154.747 110.555 154.747 109.5C154.747 108.436 155.088 107.559 155.769 106.868C156.45 106.168 157.332 105.818 158.415 105.818C159.442 105.818 160.277 106.182 160.921 106.91C161.574 107.619 161.901 108.487 161.901 109.514C161.901 109.691 161.887 109.873 161.859 110.06ZM158.415 106.966C157.771 106.966 157.23 107.148 156.791 107.512C156.362 107.876 156.096 108.371 155.993 108.996H160.669C160.566 108.352 160.31 107.853 159.899 107.498C159.488 107.143 158.994 106.966 158.415 106.966Z" fill="#232323"/>
<path d="M75.21 143V142.132C75.8913 142.225 76.4 142.015 76.736 141.502C77.0813 140.989 77.254 140.037 77.254 138.646V133.2H83.61V143H82.63V134.124H78.234V138.674C78.234 139.561 78.164 140.303 78.024 140.9C77.884 141.497 77.674 141.95 77.394 142.258C77.1233 142.566 76.8107 142.776 76.456 142.888C76.1107 143 75.6953 143.037 75.21 143ZM86.6384 141.39L90.8104 136H91.5944V143H90.6704V137.61L86.4984 143H85.7144V136H86.6384V141.39ZM98.0844 139.486V136H99.0084V143H98.0844V140.34C97.543 140.62 96.8757 140.76 96.0824 140.76C95.1584 140.76 94.4584 140.55 93.9824 140.13C93.5064 139.701 93.2684 139.071 93.2684 138.24V136H94.1924V138.24C94.1924 138.819 94.3417 139.239 94.6404 139.5C94.9484 139.761 95.4197 139.892 96.0544 139.892C96.7637 139.892 97.4404 139.757 98.0844 139.486ZM105.928 139.052V136H106.852V143H105.928V139.948H101.896V143H100.972V136H101.896V139.052H105.928ZM109.73 138.66H111.648C112.292 138.66 112.843 138.865 113.3 139.276C113.758 139.677 113.986 140.195 113.986 140.83C113.986 141.474 113.758 141.997 113.3 142.398C112.862 142.799 112.311 143 111.648 143H108.806V136H109.73V138.66ZM114.966 143V136H115.89V143H114.966ZM109.73 142.104H111.648C112.05 142.104 112.386 141.987 112.656 141.754C112.927 141.511 113.062 141.203 113.062 140.83C113.062 140.457 112.927 140.153 112.656 139.92C112.386 139.677 112.05 139.556 111.648 139.556H109.73V142.104ZM122.617 134.88H118.977V134.068H122.617V134.88ZM118.781 141.39L122.953 136H123.737V143H122.813V137.61L118.641 143H117.857V136H118.781V141.39ZM135.057 142.118C134.338 142.818 133.47 143.168 132.453 143.168C131.417 143.168 130.544 142.818 129.835 142.118C129.126 141.409 128.771 140.536 128.771 139.5C128.771 138.464 129.126 137.596 129.835 136.896C130.544 136.187 131.417 135.832 132.453 135.832C133.48 135.832 134.348 136.187 135.057 136.896C135.776 137.596 136.135 138.464 136.135 139.5C136.135 140.527 135.776 141.399 135.057 142.118ZM130.493 141.474C131.025 142.006 131.678 142.272 132.453 142.272C133.228 142.272 133.881 142.006 134.413 141.474C134.945 140.923 135.211 140.265 135.211 139.5C135.211 138.725 134.945 138.072 134.413 137.54C133.881 136.999 133.228 136.728 132.453 136.728C131.678 136.728 131.025 136.999 130.493 137.54C129.961 138.072 129.695 138.725 129.695 139.5C129.695 140.265 129.961 140.923 130.493 141.474ZM137.681 136H143.561V143H142.637V136.896H138.605V143H137.681V136ZM146.439 138.66H148.357C149.001 138.66 149.552 138.865 150.009 139.276C150.466 139.677 150.695 140.195 150.695 140.83C150.695 141.474 150.466 141.997 150.009 142.398C149.57 142.799 149.02 143 148.357 143H145.515V136H146.439V138.66ZM151.675 143V136H152.599V143H151.675ZM146.439 142.104H148.357C148.758 142.104 149.094 141.987 149.365 141.754C149.636 141.511 149.771 141.203 149.771 140.83C149.771 140.457 149.636 140.153 149.365 139.92C149.094 139.677 148.758 139.556 148.357 139.556H146.439V142.104ZM153.726 136H159.606V136.896H157.128V143H156.204V136.896H153.726V136Z" fill="#232323"/>
<path d="M78.136 167.96L82.98 173H81.692L77.1 168.254V173H76.12V163.2H77.1V167.68L81.552 163.2H82.84L78.136 167.96ZM89.4922 167.372V166H90.4162V173H89.4922V171.628C88.8482 172.655 87.9055 173.168 86.6642 173.168C85.6655 173.168 84.8115 172.813 84.1022 172.104C83.4022 171.395 83.0522 170.527 83.0522 169.5C83.0522 168.473 83.4022 167.605 84.1022 166.896C84.8115 166.187 85.6655 165.832 86.6642 165.832C87.9055 165.832 88.8482 166.345 89.4922 167.372ZM84.7742 171.474C85.3062 172.006 85.9595 172.272 86.7342 172.272C87.5089 172.272 88.1622 172.006 88.6942 171.474C89.2262 170.923 89.4922 170.265 89.4922 169.5C89.4922 168.725 89.2262 168.072 88.6942 167.54C88.1622 166.999 87.5089 166.728 86.7342 166.728C85.9595 166.728 85.3062 166.999 84.7742 167.54C84.2422 168.072 83.9762 168.725 83.9762 169.5C83.9762 170.265 84.2422 170.923 84.7742 171.474ZM94.2766 169.36L98.0286 173H96.7966L93.2966 169.626V173H92.3726V166H93.2966V169.094L96.6286 166H97.8886L94.2766 169.36ZM102.791 166H108.671V173H107.747V166.896H103.715V173H102.791V166ZM116.491 172.118C115.772 172.818 114.904 173.168 113.887 173.168C112.851 173.168 111.978 172.818 111.269 172.118C110.559 171.409 110.205 170.536 110.205 169.5C110.205 168.464 110.559 167.596 111.269 166.896C111.978 166.187 112.851 165.832 113.887 165.832C114.913 165.832 115.781 166.187 116.491 166.896C117.209 167.596 117.569 168.464 117.569 169.5C117.569 170.527 117.209 171.399 116.491 172.118ZM111.927 171.474C112.459 172.006 113.112 172.272 113.887 172.272C114.661 172.272 115.315 172.006 115.847 171.474C116.379 170.923 116.645 170.265 116.645 169.5C116.645 168.725 116.379 168.072 115.847 167.54C115.315 166.999 114.661 166.728 113.887 166.728C113.112 166.728 112.459 166.999 111.927 167.54C111.395 168.072 111.129 168.725 111.129 169.5C111.129 170.265 111.395 170.923 111.927 171.474ZM124.721 166V172.104H125.701V174.876H124.777V173H119.065V174.876H118.141V172.104H118.995C119.471 171.469 119.709 170.587 119.709 169.458V166H124.721ZM120.115 172.104H123.797V166.896H120.633V169.458C120.633 170.541 120.461 171.423 120.115 172.104ZM132.846 167.372V166H133.77V173H132.846V171.628C132.202 172.655 131.259 173.168 130.018 173.168C129.019 173.168 128.165 172.813 127.456 172.104C126.756 171.395 126.406 170.527 126.406 169.5C126.406 168.473 126.756 167.605 127.456 166.896C128.165 166.187 129.019 165.832 130.018 165.832C131.259 165.832 132.202 166.345 132.846 167.372ZM128.128 171.474C128.66 172.006 129.313 172.272 130.088 172.272C130.862 172.272 131.516 172.006 132.048 171.474C132.58 170.923 132.846 170.265 132.846 169.5C132.846 168.725 132.58 168.072 132.048 167.54C131.516 166.999 130.862 166.728 130.088 166.728C129.313 166.728 128.66 166.999 128.128 167.54C127.596 168.072 127.33 168.725 127.33 169.5C127.33 170.265 127.596 170.923 128.128 171.474ZM134.886 166H140.766V166.896H138.288V173H137.364V166.896H134.886V166ZM142.816 168.66H144.734C145.378 168.66 145.929 168.865 146.386 169.276C146.843 169.677 147.072 170.195 147.072 170.83C147.072 171.474 146.843 171.997 146.386 172.398C145.947 172.799 145.397 173 144.734 173H141.892V166H142.816V168.66ZM142.816 172.104H144.734C145.135 172.104 145.471 171.987 145.742 171.754C146.013 171.511 146.148 171.203 146.148 170.83C146.148 170.457 146.013 170.153 145.742 169.92C145.471 169.677 145.135 169.556 144.734 169.556H142.816V172.104ZM156.924 169.052V166H157.848V173H156.924V169.948H152.892V173H151.968V166H152.892V169.052H156.924ZM165.822 167.372V166H166.746V173H165.822V171.628C165.178 172.655 164.236 173.168 162.994 173.168C161.996 173.168 161.142 172.813 160.432 172.104C159.732 171.395 159.382 170.527 159.382 169.5C159.382 168.473 159.732 167.605 160.432 166.896C161.142 166.187 161.996 165.832 162.994 165.832C164.236 165.832 165.178 166.345 165.822 167.372ZM161.104 171.474C161.636 172.006 162.29 172.272 163.064 172.272C163.839 172.272 164.492 172.006 165.024 171.474C165.556 170.923 165.822 170.265 165.822 169.5C165.822 168.725 165.556 168.072 165.024 167.54C164.492 166.999 163.839 166.728 163.064 166.728C162.29 166.728 161.636 166.999 161.104 167.54C160.572 168.072 160.306 168.725 160.306 169.5C160.306 170.265 160.572 170.923 161.104 171.474ZM172.203 166H176.683V166.896H173.127V173H172.203V166ZM181.56 165.832C182.559 165.832 183.408 166.187 184.108 166.896C184.817 167.605 185.172 168.473 185.172 169.5C185.172 170.527 184.817 171.395 184.108 172.104C183.408 172.813 182.559 173.168 181.56 173.168C180.319 173.168 179.376 172.655 178.732 171.628V175.8H177.808V166H178.732V167.372C179.376 166.345 180.319 165.832 181.56 165.832ZM179.53 171.474C180.062 172.006 180.715 172.272 181.49 172.272C182.265 172.272 182.918 172.006 183.45 171.474C183.982 170.923 184.248 170.265 184.248 169.5C184.248 168.725 183.982 168.072 183.45 167.54C182.918 166.999 182.265 166.728 181.49 166.728C180.715 166.728 180.062 166.999 179.53 167.54C178.998 168.072 178.732 168.725 178.732 169.5C178.732 170.265 178.998 170.923 179.53 171.474ZM192.729 167.372V166H193.653V173H192.729V171.628C192.085 172.655 191.142 173.168 189.901 173.168C188.902 173.168 188.048 172.813 187.339 172.104C186.639 171.395 186.289 170.527 186.289 169.5C186.289 168.473 186.639 167.605 187.339 166.896C188.048 166.187 188.902 165.832 189.901 165.832C191.142 165.832 192.085 166.345 192.729 167.372ZM188.011 171.474C188.543 172.006 189.196 172.272 189.971 172.272C190.745 172.272 191.399 172.006 191.931 171.474C192.463 170.923 192.729 170.265 192.729 169.5C192.729 168.725 192.463 168.072 191.931 167.54C191.399 166.999 190.745 166.728 189.971 166.728C189.196 166.728 188.543 166.999 188.011 167.54C187.479 168.072 187.213 168.725 187.213 169.5C187.213 170.265 187.479 170.923 188.011 171.474ZM200.565 169.052V166H201.489V173H200.565V169.948H196.533V173H195.609V166H196.533V169.052H200.565ZM202.603 166H208.483V166.896H206.005V173H205.081V166.896H202.603V166ZM212.549 170.34H211.569C211.569 169.5 211.886 168.763 212.521 168.128C212.596 168.053 212.745 167.909 212.969 167.694C213.202 167.479 213.37 167.316 213.473 167.204C213.576 167.092 213.702 166.943 213.851 166.756C214 166.56 214.103 166.373 214.159 166.196C214.224 166.009 214.257 165.818 214.257 165.622C214.257 165.099 214.075 164.698 213.711 164.418C213.356 164.129 212.88 163.984 212.283 163.984C211.135 163.984 210.426 164.455 210.155 165.398L209.329 164.936C209.544 164.329 209.912 163.863 210.435 163.536C210.967 163.2 211.583 163.032 212.283 163.032C213.104 163.032 213.8 163.261 214.369 163.718C214.948 164.166 215.237 164.801 215.237 165.622C215.237 166.341 214.92 167.017 214.285 167.652C214.248 167.68 214.136 167.783 213.949 167.96C213.772 168.128 213.655 168.245 213.599 168.31C213.543 168.366 213.44 168.473 213.291 168.632C213.142 168.791 213.039 168.921 212.983 169.024C212.927 169.127 212.857 169.257 212.773 169.416C212.689 169.565 212.628 169.719 212.591 169.878C212.563 170.027 212.549 170.181 212.549 170.34ZM212.829 172.37C212.829 172.585 212.754 172.767 212.605 172.916C212.456 173.065 212.274 173.14 212.059 173.14C211.844 173.14 211.662 173.065 211.513 172.916C211.364 172.767 211.289 172.585 211.289 172.37C211.289 172.155 211.364 171.973 211.513 171.824C211.662 171.675 211.844 171.6 212.059 171.6C212.274 171.6 212.456 171.675 212.605 171.824C212.754 171.973 212.829 172.155 212.829 172.37Z" fill="#232323"/>
<path d="M78.136 197.96L82.98 203H81.692L77.1 198.254V203H76.12V193.2H77.1V197.68L81.552 193.2H82.84L78.136 197.96ZM89.4922 197.372V196H90.4162V203H89.4922V201.628C88.8482 202.655 87.9055 203.168 86.6642 203.168C85.6655 203.168 84.8115 202.813 84.1022 202.104C83.4022 201.395 83.0522 200.527 83.0522 199.5C83.0522 198.473 83.4022 197.605 84.1022 196.896C84.8115 196.187 85.6655 195.832 86.6642 195.832C87.9055 195.832 88.8482 196.345 89.4922 197.372ZM84.7742 201.474C85.3062 202.006 85.9595 202.272 86.7342 202.272C87.5089 202.272 88.1622 202.006 88.6942 201.474C89.2262 200.923 89.4922 200.265 89.4922 199.5C89.4922 198.725 89.2262 198.072 88.6942 197.54C88.1622 196.999 87.5089 196.728 86.7342 196.728C85.9595 196.728 85.3062 196.999 84.7742 197.54C84.2422 198.072 83.9762 198.725 83.9762 199.5C83.9762 200.265 84.2422 200.923 84.7742 201.474ZM94.2766 199.36L98.0286 203H96.7966L93.2966 199.626V203H92.3726V196H93.2966V199.094L96.6286 196H97.8886L94.2766 199.36ZM100.215 201.39L104.387 196H105.171V203H104.247V197.61L100.075 203H99.2905V196H100.215V201.39ZM110.359 195.832C111.404 195.832 112.239 196.201 112.865 196.938C113.509 197.666 113.831 198.529 113.831 199.528C113.831 199.575 113.821 199.719 113.803 199.962H107.657C107.75 200.662 108.049 201.222 108.553 201.642C109.057 202.062 109.687 202.272 110.443 202.272C111.507 202.272 112.258 201.875 112.697 201.082L113.509 201.558C113.201 202.062 112.776 202.459 112.235 202.748C111.703 203.028 111.101 203.168 110.429 203.168C109.327 203.168 108.431 202.823 107.741 202.132C107.05 201.441 106.705 200.564 106.705 199.5C106.705 198.445 107.045 197.573 107.727 196.882C108.408 196.182 109.285 195.832 110.359 195.832ZM110.359 196.728C109.631 196.728 109.019 196.943 108.525 197.372C108.039 197.801 107.75 198.366 107.657 199.066H112.879C112.776 198.319 112.491 197.745 112.025 197.344C111.539 196.933 110.984 196.728 110.359 196.728ZM124.68 196V202.104H125.66V204.876H124.736V203H119.024V204.876H118.1V202.104H118.954C119.43 201.469 119.668 200.587 119.668 199.458V196H124.68ZM120.074 202.104H123.756V196.896H120.592V199.458C120.592 200.541 120.42 201.423 120.074 202.104ZM132.651 202.118C131.932 202.818 131.064 203.168 130.047 203.168C129.011 203.168 128.138 202.818 127.429 202.118C126.719 201.409 126.365 200.536 126.365 199.5C126.365 198.464 126.719 197.596 127.429 196.896C128.138 196.187 129.011 195.832 130.047 195.832C131.073 195.832 131.941 196.187 132.651 196.896C133.369 197.596 133.729 198.464 133.729 199.5C133.729 200.527 133.369 201.399 132.651 202.118ZM128.087 201.474C128.619 202.006 129.272 202.272 130.047 202.272C130.821 202.272 131.475 202.006 132.007 201.474C132.539 200.923 132.805 200.265 132.805 199.5C132.805 198.725 132.539 198.072 132.007 197.54C131.475 196.999 130.821 196.728 130.047 196.728C129.272 196.728 128.619 196.999 128.087 197.54C127.555 198.072 127.289 198.725 127.289 199.5C127.289 200.265 127.555 200.923 128.087 201.474ZM137.179 199.36L140.931 203H139.699L136.199 199.626V203H135.275V196H136.199V199.094L139.531 196H140.791L137.179 199.36ZM144.691 201.866L146.959 196H147.939L144.943 203.644C144.663 204.353 144.271 204.899 143.767 205.282C143.273 205.674 142.722 205.847 142.115 205.8V204.932C142.955 205.035 143.595 204.549 144.033 203.476L144.215 203.042L141.079 196H142.059L144.691 201.866ZM154.852 196H155.916V203H154.992V197.414L152.542 201.39H152.43L149.98 197.414V203H149.056V196H150.12L152.486 199.836L154.852 196ZM161.109 195.832C162.154 195.832 162.989 196.201 163.615 196.938C164.259 197.666 164.581 198.529 164.581 199.528C164.581 199.575 164.571 199.719 164.553 199.962H158.407C158.5 200.662 158.799 201.222 159.303 201.642C159.807 202.062 160.437 202.272 161.193 202.272C162.257 202.272 163.008 201.875 163.447 201.082L164.259 201.558C163.951 202.062 163.526 202.459 162.985 202.748C162.453 203.028 161.851 203.168 161.179 203.168C160.077 203.168 159.181 202.823 158.491 202.132C157.8 201.441 157.455 200.564 157.455 199.5C157.455 198.445 157.795 197.573 158.477 196.882C159.158 196.182 160.035 195.832 161.109 195.832ZM161.109 196.728C160.381 196.728 159.769 196.943 159.275 197.372C158.789 197.801 158.5 198.366 158.407 199.066H163.629C163.526 198.319 163.241 197.745 162.775 197.344C162.289 196.933 161.734 196.728 161.109 196.728ZM171.006 199.052V196H171.93V203H171.006V199.948H166.974V203H166.05V196H166.974V199.052H171.006ZM173.044 196H178.924V196.896H176.446V203H175.522V196.896H173.044V196ZM180.974 198.66H182.892C183.536 198.66 184.087 198.865 184.544 199.276C185.002 199.677 185.23 200.195 185.23 200.83C185.23 201.474 185.002 201.997 184.544 202.398C184.106 202.799 183.555 203 182.892 203H180.05V196H180.974V198.66ZM186.21 203V196H187.134V203H186.21ZM180.974 202.104H182.892C183.294 202.104 183.63 201.987 183.9 201.754C184.171 201.511 184.306 201.203 184.306 200.83C184.306 200.457 184.171 200.153 183.9 199.92C183.63 199.677 183.294 199.556 182.892 199.556H180.974V202.104ZM197.557 199.052V196H198.481V203H197.557V199.948H193.525V203H192.601V196H193.525V199.052H197.557ZM203.207 201.866L205.475 196H206.455L203.459 203.644C203.179 204.353 202.787 204.899 202.283 205.282C201.788 205.674 201.238 205.847 200.631 205.8V204.932C201.471 205.035 202.11 204.549 202.549 203.476L202.731 203.042L199.595 196H200.575L203.207 201.866ZM212.475 199.36L215.611 203H214.491L211.635 199.626V203H210.711V199.626L207.855 203H206.735L209.871 199.36L206.875 196H207.995L210.711 199.108V196H211.635V199.108L214.351 196H215.471L212.475 199.36ZM221.825 199.052V196H222.749V203H221.825V199.948H217.793V203H216.869V196H217.793V199.052H221.825ZM225.627 198.66H227.545C228.189 198.66 228.739 198.865 229.197 199.276C229.654 199.677 229.883 200.195 229.883 200.83C229.883 201.474 229.654 201.997 229.197 202.398C228.758 202.799 228.207 203 227.545 203H224.703V196H225.627V198.66ZM230.863 203V196H231.787V203H230.863ZM225.627 202.104H227.545C227.946 202.104 228.282 201.987 228.553 201.754C228.823 201.511 228.959 201.203 228.959 200.83C228.959 200.457 228.823 200.153 228.553 199.92C228.282 199.677 227.946 199.556 227.545 199.556H225.627V202.104ZM236.693 200.34H235.713C235.713 199.5 236.031 198.763 236.665 198.128C236.74 198.053 236.889 197.909 237.113 197.694C237.347 197.479 237.515 197.316 237.617 197.204C237.72 197.092 237.846 196.943 237.995 196.756C238.145 196.56 238.247 196.373 238.303 196.196C238.369 196.009 238.401 195.818 238.401 195.622C238.401 195.099 238.219 194.698 237.855 194.418C237.501 194.129 237.025 193.984 236.427 193.984C235.279 193.984 234.57 194.455 234.299 195.398L233.473 194.936C233.688 194.329 234.057 193.863 234.579 193.536C235.111 193.2 235.727 193.032 236.427 193.032C237.249 193.032 237.944 193.261 238.513 193.718C239.092 194.166 239.381 194.801 239.381 195.622C239.381 196.341 239.064 197.017 238.429 197.652C238.392 197.68 238.28 197.783 238.093 197.96C237.916 198.128 237.799 198.245 237.743 198.31C237.687 198.366 237.585 198.473 237.435 198.632C237.286 198.791 237.183 198.921 237.127 199.024C237.071 199.127 237.001 199.257 236.917 199.416C236.833 199.565 236.773 199.719 236.735 199.878C236.707 200.027 236.693 200.181 236.693 200.34ZM236.973 202.37C236.973 202.585 236.899 202.767 236.749 202.916C236.6 203.065 236.418 203.14 236.203 203.14C235.989 203.14 235.807 203.065 235.657 202.916C235.508 202.767 235.433 202.585 235.433 202.37C235.433 202.155 235.508 201.973 235.657 201.824C235.807 201.675 235.989 201.6 236.203 201.6C236.418 201.6 236.6 201.675 236.749 201.824C236.899 201.973 236.973 202.155 236.973 202.37Z" fill="#232323"/>
<path d="M83.4 233H82.42V225.02L76.96 233H76.12V223.2H77.1V231.18L82.56 223.2H83.4V233ZM89.1076 229.402C89.9196 229.71 90.3256 230.27 90.3256 231.082C90.3256 231.67 90.097 232.165 89.6396 232.566C89.201 232.967 88.557 233.168 87.7076 233.168C86.289 233.168 85.365 232.608 84.9356 231.488L85.7196 231.026C86.0183 231.857 86.681 232.272 87.7076 232.272C88.2396 232.272 88.655 232.16 88.9536 231.936C89.2523 231.703 89.4016 231.399 89.4016 231.026C89.4016 230.69 89.2803 230.424 89.0376 230.228C88.795 230.023 88.4683 229.92 88.0576 229.92H87.0356V229.024H87.7776C88.179 229.024 88.4916 228.926 88.7156 228.73C88.949 228.525 89.0656 228.245 89.0656 227.89C89.0656 227.554 88.9256 227.279 88.6456 227.064C88.375 226.84 88.0156 226.728 87.5676 226.728C86.6996 226.728 86.1163 227.078 85.8176 227.778L85.0476 227.33C85.5143 226.331 86.3543 225.832 87.5676 225.832C88.3143 225.832 88.9023 226.028 89.3316 226.42C89.7703 226.803 89.9896 227.274 89.9896 227.834C89.9896 228.553 89.6956 229.075 89.1076 229.402ZM99.766 229.486V226H100.69V233H99.766V230.34C99.2247 230.62 98.5573 230.76 97.764 230.76C96.84 230.76 96.14 230.55 95.664 230.13C95.188 229.701 94.95 229.071 94.95 228.24V226H95.874V228.24C95.874 228.819 96.0233 229.239 96.322 229.5C96.63 229.761 97.1013 229.892 97.736 229.892C98.4453 229.892 99.122 229.757 99.766 229.486ZM105.888 225.832C106.933 225.832 107.768 226.201 108.394 226.938C109.038 227.666 109.36 228.529 109.36 229.528C109.36 229.575 109.35 229.719 109.332 229.962H103.186C103.279 230.662 103.578 231.222 104.082 231.642C104.586 232.062 105.216 232.272 105.972 232.272C107.036 232.272 107.787 231.875 108.226 231.082L109.038 231.558C108.73 232.062 108.305 232.459 107.764 232.748C107.232 233.028 106.63 233.168 105.958 233.168C104.856 233.168 103.96 232.823 103.27 232.132C102.579 231.441 102.234 230.564 102.234 229.5C102.234 228.445 102.574 227.573 103.256 226.882C103.937 226.182 104.814 225.832 105.888 225.832ZM105.888 226.728C105.16 226.728 104.548 226.943 104.054 227.372C103.568 227.801 103.279 228.366 103.186 229.066H108.408C108.305 228.319 108.02 227.745 107.554 227.344C107.068 226.933 106.513 226.728 105.888 226.728ZM110.83 226H115.31V226.896H111.754V233H110.83V226ZM122.028 232.118C121.309 232.818 120.441 233.168 119.424 233.168C118.388 233.168 117.515 232.818 116.806 232.118C116.096 231.409 115.742 230.536 115.742 229.5C115.742 228.464 116.096 227.596 116.806 226.896C117.515 226.187 118.388 225.832 119.424 225.832C120.45 225.832 121.318 226.187 122.028 226.896C122.746 227.596 123.106 228.464 123.106 229.5C123.106 230.527 122.746 231.399 122.028 232.118ZM117.464 231.474C117.996 232.006 118.649 232.272 119.424 232.272C120.198 232.272 120.852 232.006 121.384 231.474C121.916 230.923 122.182 230.265 122.182 229.5C122.182 228.725 121.916 228.072 121.384 227.54C120.852 226.999 120.198 226.728 119.424 226.728C118.649 226.728 117.996 226.999 117.464 227.54C116.932 228.072 116.666 228.725 116.666 229.5C116.666 230.265 116.932 230.923 117.464 231.474ZM131.414 233.168C130.359 233.168 129.482 232.818 128.782 232.118C128.082 231.399 127.732 230.527 127.732 229.5C127.732 228.464 128.082 227.596 128.782 226.896C129.482 226.187 130.359 225.832 131.414 225.832C132.105 225.832 132.725 226 133.276 226.336C133.827 226.663 134.228 227.106 134.48 227.666L133.724 228.1C133.537 227.68 133.234 227.349 132.814 227.106C132.403 226.854 131.937 226.728 131.414 226.728C130.639 226.728 129.986 226.999 129.454 227.54C128.922 228.072 128.656 228.725 128.656 229.5C128.656 230.265 128.922 230.923 129.454 231.474C129.986 232.006 130.639 232.272 131.414 232.272C131.927 232.272 132.389 232.151 132.8 231.908C133.22 231.665 133.547 231.329 133.78 230.9L134.55 231.348C134.261 231.908 133.836 232.351 133.276 232.678C132.716 233.005 132.095 233.168 131.414 233.168ZM141.674 232.118C140.955 232.818 140.087 233.168 139.07 233.168C138.034 233.168 137.161 232.818 136.452 232.118C135.743 231.409 135.388 230.536 135.388 229.5C135.388 228.464 135.743 227.596 136.452 226.896C137.161 226.187 138.034 225.832 139.07 225.832C140.097 225.832 140.965 226.187 141.674 226.896C142.393 227.596 142.752 228.464 142.752 229.5C142.752 230.527 142.393 231.399 141.674 232.118ZM137.11 231.474C137.642 232.006 138.295 232.272 139.07 232.272C139.845 232.272 140.498 232.006 141.03 231.474C141.562 230.923 141.828 230.265 141.828 229.5C141.828 228.725 141.562 228.072 141.03 227.54C140.498 226.999 139.845 226.728 139.07 226.728C138.295 226.728 137.642 226.999 137.11 227.54C136.578 228.072 136.312 228.725 136.312 229.5C136.312 230.265 136.578 230.923 137.11 231.474ZM147.56 233.168C146.506 233.168 145.628 232.818 144.928 232.118C144.228 231.399 143.878 230.527 143.878 229.5C143.878 228.464 144.228 227.596 144.928 226.896C145.628 226.187 146.506 225.832 147.56 225.832C148.251 225.832 148.872 226 149.422 226.336C149.973 226.663 150.374 227.106 150.626 227.666L149.87 228.1C149.684 227.68 149.38 227.349 148.96 227.106C148.55 226.854 148.083 226.728 147.56 226.728C146.786 226.728 146.132 226.999 145.6 227.54C145.068 228.072 144.802 228.725 144.802 229.5C144.802 230.265 145.068 230.923 145.6 231.474C146.132 232.006 146.786 232.272 147.56 232.272C148.074 232.272 148.536 232.151 148.946 231.908C149.366 231.665 149.693 231.329 149.926 230.9L150.696 231.348C150.407 231.908 149.982 232.351 149.422 232.678C148.862 233.005 148.242 233.168 147.56 233.168ZM151.046 226H156.926V226.896H154.448V233H153.524V226.896H151.046V226ZM163.645 232.118C162.926 232.818 162.058 233.168 161.041 233.168C160.005 233.168 159.132 232.818 158.423 232.118C157.713 231.409 157.359 230.536 157.359 229.5C157.359 228.464 157.713 227.596 158.423 226.896C159.132 226.187 160.005 225.832 161.041 225.832C162.067 225.832 162.935 226.187 163.645 226.896C164.363 227.596 164.723 228.464 164.723 229.5C164.723 230.527 164.363 231.399 163.645 232.118ZM159.081 231.474C159.613 232.006 160.266 232.272 161.041 232.272C161.815 232.272 162.469 232.006 163.001 231.474C163.533 230.923 163.799 230.265 163.799 229.5C163.799 228.725 163.533 228.072 163.001 227.54C162.469 226.999 161.815 226.728 161.041 226.728C160.266 226.728 159.613 226.999 159.081 227.54C158.549 228.072 158.283 228.725 158.283 229.5C158.283 230.265 158.549 230.923 159.081 231.474ZM167.193 231.39L171.365 226H172.149V233H171.225V227.61L167.053 233H166.269V226H167.193V231.39ZM173.263 226H179.143V226.896H176.665V233H175.741V226.896H173.263V226ZM186.877 233.168C185.878 233.168 185.038 232.837 184.357 232.174C183.685 231.502 183.349 230.634 183.349 229.57C183.349 228.375 183.526 227.461 183.881 226.826C184.236 226.182 184.954 225.599 186.037 225.076C186.382 224.917 186.653 224.796 186.849 224.712C187.176 224.581 187.432 224.469 187.619 224.376C188.431 224.003 188.842 223.541 188.851 222.99L189.579 223.41C189.532 223.643 189.458 223.853 189.355 224.04C189.234 224.245 189.112 224.409 188.991 224.53C188.879 224.651 188.702 224.782 188.459 224.922C188.3 225.015 188.109 225.118 187.885 225.23L187.185 225.524L186.527 225.804C185.883 226.084 185.402 226.378 185.085 226.686C184.777 226.985 184.558 227.377 184.427 227.862C184.726 227.461 185.118 227.157 185.603 226.952C186.088 226.737 186.578 226.63 187.073 226.63C188.006 226.63 188.776 226.938 189.383 227.554C189.999 228.161 190.307 228.94 190.307 229.892C190.307 230.835 189.98 231.619 189.327 232.244C188.683 232.86 187.866 233.168 186.877 233.168ZM185.057 231.558C185.542 232.015 186.149 232.244 186.877 232.244C187.605 232.244 188.202 232.025 188.669 231.586C189.145 231.138 189.383 230.573 189.383 229.892C189.383 229.201 189.159 228.637 188.711 228.198C188.272 227.75 187.684 227.526 186.947 227.526C186.284 227.526 185.682 227.736 185.141 228.156C184.6 228.557 184.329 229.108 184.329 229.808C184.329 230.517 184.572 231.101 185.057 231.558ZM192.636 231.39L196.808 226H197.592V233H196.668V227.61L192.496 233H191.712V226H192.636V231.39ZM203.158 229.402C203.97 229.71 204.376 230.27 204.376 231.082C204.376 231.67 204.148 232.165 203.69 232.566C203.252 232.967 202.608 233.168 201.758 233.168C200.34 233.168 199.416 232.608 198.986 231.488L199.77 231.026C200.069 231.857 200.732 232.272 201.758 232.272C202.29 232.272 202.706 232.16 203.004 231.936C203.303 231.703 203.452 231.399 203.452 231.026C203.452 230.69 203.331 230.424 203.088 230.228C202.846 230.023 202.519 229.92 202.108 229.92H201.086V229.024H201.828C202.23 229.024 202.542 228.926 202.766 228.73C203 228.525 203.116 228.245 203.116 227.89C203.116 227.554 202.976 227.279 202.696 227.064C202.426 226.84 202.066 226.728 201.618 226.728C200.75 226.728 200.167 227.078 199.868 227.778L199.098 227.33C199.565 226.331 200.405 225.832 201.618 225.832C202.365 225.832 202.953 226.028 203.382 226.42C203.821 226.803 204.04 227.274 204.04 227.834C204.04 228.553 203.746 229.075 203.158 229.402ZM210.737 229.052V226H211.661V233H210.737V229.948H206.705V233H205.781V226H206.705V229.052H210.737ZM216.849 225.832C217.894 225.832 218.729 226.201 219.355 226.938C219.999 227.666 220.321 228.529 220.321 229.528C220.321 229.575 220.311 229.719 220.293 229.962H214.147C214.24 230.662 214.539 231.222 215.043 231.642C215.547 232.062 216.177 232.272 216.933 232.272C217.997 232.272 218.748 231.875 219.187 231.082L219.999 231.558C219.691 232.062 219.266 232.459 218.725 232.748C218.193 233.028 217.591 233.168 216.919 233.168C215.817 233.168 214.921 232.823 214.231 232.132C213.54 231.441 213.195 230.564 213.195 229.5C213.195 228.445 213.535 227.573 214.217 226.882C214.898 226.182 215.775 225.832 216.849 225.832ZM216.849 226.728C216.121 226.728 215.509 226.943 215.015 227.372C214.529 227.801 214.24 228.366 214.147 229.066H219.369C219.266 228.319 218.981 227.745 218.515 227.344C218.029 226.933 217.474 226.728 216.849 226.728ZM225.053 233.168C223.998 233.168 223.121 232.818 222.421 232.118C221.721 231.399 221.371 230.527 221.371 229.5C221.371 228.464 221.721 227.596 222.421 226.896C223.121 226.187 223.998 225.832 225.053 225.832C225.743 225.832 226.364 226 226.915 226.336C227.465 226.663 227.867 227.106 228.119 227.666L227.363 228.1C227.176 227.68 226.873 227.349 226.453 227.106C226.042 226.854 225.575 226.728 225.053 226.728C224.278 226.728 223.625 226.999 223.093 227.54C222.561 228.072 222.295 228.725 222.295 229.5C222.295 230.265 222.561 230.923 223.093 231.474C223.625 232.006 224.278 232.272 225.053 232.272C225.566 232.272 226.028 232.151 226.439 231.908C226.859 231.665 227.185 231.329 227.419 230.9L228.189 231.348C227.899 231.908 227.475 232.351 226.915 232.678C226.355 233.005 225.734 233.168 225.053 233.168ZM233.015 226H238.895V233H237.971V226.896H233.939V233H233.015V226ZM241.577 226H246.589V233H245.665V226.896H242.501V230.018C242.501 231.185 242.277 231.987 241.829 232.426C241.39 232.865 240.784 233.056 240.009 233V232.132C240.55 232.188 240.947 232.057 241.199 231.74C241.451 231.423 241.577 230.849 241.577 230.018V226ZM254.566 227.372V226H255.49V233H254.566V231.628C253.922 232.655 252.98 233.168 251.738 233.168C250.74 233.168 249.886 232.813 249.176 232.104C248.476 231.395 248.126 230.527 248.126 229.5C248.126 228.473 248.476 227.605 249.176 226.896C249.886 226.187 250.74 225.832 251.738 225.832C252.98 225.832 253.922 226.345 254.566 227.372ZM249.848 231.474C250.38 232.006 251.034 232.272 251.808 232.272C252.583 232.272 253.236 232.006 253.768 231.474C254.3 230.923 254.566 230.265 254.566 229.5C254.566 228.725 254.3 228.072 253.768 227.54C253.236 226.999 252.583 226.728 251.808 226.728C251.034 226.728 250.38 226.999 249.848 227.54C249.316 228.072 249.05 228.725 249.05 229.5C249.05 230.265 249.316 230.923 249.848 231.474ZM262.403 229.052V226H263.327V233H262.403V229.948H258.371V233H257.447V226H258.371V229.052H262.403ZM268.221 230.34H267.241C267.241 229.5 267.558 228.763 268.193 228.128C268.267 228.053 268.417 227.909 268.641 227.694C268.874 227.479 269.042 227.316 269.145 227.204C269.247 227.092 269.373 226.943 269.523 226.756C269.672 226.56 269.775 226.373 269.831 226.196C269.896 226.009 269.929 225.818 269.929 225.622C269.929 225.099 269.747 224.698 269.383 224.418C269.028 224.129 268.552 223.984 267.955 223.984C266.807 223.984 266.097 224.455 265.827 225.398L265.001 224.936C265.215 224.329 265.584 223.863 266.107 223.536C266.639 223.2 267.255 223.032 267.955 223.032C268.776 223.032 269.471 223.261 270.041 223.718C270.619 224.166 270.909 224.801 270.909 225.622C270.909 226.341 270.591 227.017 269.957 227.652C269.919 227.68 269.807 227.783 269.621 227.96C269.443 228.128 269.327 228.245 269.271 228.31C269.215 228.366 269.112 228.473 268.963 228.632C268.813 228.791 268.711 228.921 268.655 229.024C268.599 229.127 268.529 229.257 268.445 229.416C268.361 229.565 268.3 229.719 268.263 229.878C268.235 230.027 268.221 230.181 268.221 230.34ZM268.501 232.37C268.501 232.585 268.426 232.767 268.277 232.916C268.127 233.065 267.945 233.14 267.731 233.14C267.516 233.14 267.334 233.065 267.185 232.916C267.035 232.767 266.961 232.585 266.961 232.37C266.961 232.155 267.035 231.973 267.185 231.824C267.334 231.675 267.516 231.6 267.731 231.6C267.945 231.6 268.127 231.675 268.277 231.824C268.426 231.973 268.501 232.155 268.501 232.37Z" fill="#232323"/>
<rect x="65" width="189" height="48" rx="5" fill="url(#paint0_linear_32:220)"/>
<path d="M107.961 31V14.1953H116.293V31H113.598V16.5977H110.598V31H107.961ZM118.203 31V14.1953H125.398V16.5977H120.84V21.2852H124.461V23.6758H120.84V28.5977H125.398V31H118.203ZM127.039 31V14.1953H130.93C132.234 14.1953 133.215 14.5508 133.871 15.2617C134.535 15.9727 134.867 17.0039 134.867 18.3555V20.5352C134.867 21.8867 134.535 22.918 133.871 23.6289C133.215 24.332 132.234 24.6836 130.93 24.6836H129.676V31H127.039ZM129.676 22.293H130.93C131.367 22.293 131.691 22.1719 131.902 21.9297C132.113 21.6875 132.219 21.2773 132.219 20.6992V18.1797C132.219 17.6016 132.113 17.1953 131.902 16.9609C131.691 16.7188 131.367 16.5977 130.93 16.5977H129.676V22.293ZM136.086 31V14.1953H140.07C141.422 14.1953 142.41 14.5117 143.035 15.1445C143.668 15.7773 143.984 16.75 143.984 18.0625V18.6602C143.984 20.3789 143.414 21.5078 142.273 22.0469C143.586 22.5547 144.242 23.7539 144.242 25.6445V27.0156C144.242 28.3125 143.902 29.3008 143.223 29.9805C142.543 30.6602 141.547 31 140.234 31H136.086ZM138.723 28.5977H140.234C140.695 28.5977 141.039 28.4727 141.266 28.2227C141.492 27.9727 141.605 27.5469 141.605 26.9453V25.4805C141.605 24.7148 141.473 24.1836 141.207 23.8867C140.949 23.5898 140.516 23.4414 139.906 23.4414H138.723V28.5977ZM138.723 21.0391H139.754C140.277 21.0391 140.672 20.9062 140.938 20.6406C141.203 20.3672 141.336 19.9102 141.336 19.2695V18.332C141.336 17.7305 141.23 17.293 141.02 17.0195C140.809 16.7383 140.469 16.5977 140 16.5977H138.723V21.0391ZM145.836 31V14.1953H148.473V20.5117H149.727C151.031 20.5117 152.012 20.8672 152.668 21.5781C153.332 22.2812 153.664 23.3086 153.664 24.6602V26.8516C153.664 28.2031 153.332 29.2344 152.668 29.9453C152.012 30.6484 151.031 31 149.727 31H145.836ZM148.473 28.5977H149.727C150.164 28.5977 150.488 28.4805 150.699 28.2461C150.91 28.0039 151.016 27.5938 151.016 27.0156V24.4961C151.016 23.918 150.91 23.5117 150.699 23.2773C150.488 23.0352 150.164 22.9141 149.727 22.9141H148.473V28.5977ZM155.176 31V14.1953H157.812V31H155.176ZM159.734 31H162.441L164.656 23.3008L165.734 19.1641V31H168.113V14.1953H165.207L163.051 21.1328L162.09 24.8359V14.1953H159.734V31ZM161.199 10.457H162.828C162.859 10.8789 162.961 11.168 163.133 11.3242C163.312 11.4805 163.586 11.5586 163.953 11.5586C164.336 11.5586 164.625 11.4805 164.82 11.3242C165.016 11.168 165.129 10.8789 165.16 10.457H166.766C166.766 11.293 166.527 11.9453 166.051 12.4141C165.574 12.8828 164.875 13.1172 163.953 13.1172C163.055 13.1172 162.375 12.8867 161.914 12.4258C161.461 11.957 161.223 11.3008 161.199 10.457ZM173.176 33.2617V28.6445H174.207C174.426 28.3711 174.582 28.0703 174.676 27.7422C174.77 27.4062 174.828 26.9805 174.852 26.4648L175.449 14.1953H182.844V28.6445H183.992V33.2617H181.379V31H175.742V33.2617H173.176ZM176.703 28.6445H180.16V16.5977H177.922L177.441 26.418C177.41 27.0352 177.336 27.5078 177.219 27.8359C177.102 28.1562 176.93 28.4258 176.703 28.6445ZM185.469 31V14.1953H192.664V16.5977H188.105V21.2852H191.727V23.6758H188.105V28.5977H192.664V31H185.469ZM194.305 31V14.1953H196.941V21.4023H199.941V14.1953H202.637V31H199.941V23.8047H196.941V31H194.305ZM204.547 31V14.1953H207.184V20.5117H208.438C209.742 20.5117 210.723 20.8672 211.379 21.5781C212.043 22.2812 212.375 23.3086 212.375 24.6602V26.8516C212.375 28.2031 212.043 29.2344 211.379 29.9453C210.723 30.6484 209.742 31 208.438 31H204.547ZM207.184 28.5977H208.438C208.875 28.5977 209.199 28.4805 209.41 28.2461C209.621 28.0039 209.727 27.5938 209.727 27.0156V24.4961C209.727 23.918 209.621 23.5117 209.41 23.2773C209.199 23.0352 208.875 22.9141 208.438 22.9141H207.184V28.5977Z" fill="#EDE9FF"/>
<circle cx="49" cy="90" r="7" fill="url(#paint1_linear_32:220)"/>
<path fill-rule="evenodd" clip-rule="evenodd" d="M52.5202 88.1293C52.614 88.212 52.6667 88.3243 52.6667 88.4414C52.6667 88.5584 52.614 88.6707 52.5202 88.7535L48.5166 92.2853C48.4228 92.3681 48.2955 92.4146 48.1628 92.4146C48.0301 92.4146 47.9029 92.3681 47.809 92.2853L45.8072 90.5194C45.7161 90.4361 45.6656 90.3246 45.6668 90.2089C45.6679 90.0931 45.7205 89.9824 45.8133 89.9005C45.9061 89.8187 46.0316 89.7722 46.1628 89.7712C46.2941 89.7702 46.4205 89.8147 46.5149 89.8952L48.1628 91.3489L51.8126 88.1293C51.9064 88.0465 52.0337 88 52.1664 88C52.2991 88 52.4264 88.0465 52.5202 88.1293Z" fill="white"/>
<circle cx="49" cy="138" r="7" fill="url(#paint2_linear_32:220)"/>
<path fill-rule="evenodd" clip-rule="evenodd" d="M52.8535 136.129C52.9473 136.212 53 136.324 53 136.441C53 136.558 52.9473 136.671 52.8535 136.754L48.8499 140.285C48.7561 140.368 48.6288 140.415 48.4961 140.415C48.3634 140.415 48.2361 140.368 48.1423 140.285L46.1405 138.519C46.0493 138.436 45.9989 138.325 46 138.209C46.0012 138.093 46.0538 137.982 46.1466 137.901C46.2394 137.819 46.3649 137.772 46.4961 137.771C46.6273 137.77 46.7537 137.815 46.8481 137.895L48.4961 139.349L52.1458 136.129C52.2397 136.046 52.367 136 52.4997 136C52.6324 136 52.7596 136.046 52.8535 136.129Z" fill="white"/>
<circle cx="49" cy="168" r="7" fill="url(#paint3_linear_32:220)"/>
<path fill-rule="evenodd" clip-rule="evenodd" d="M52.5202 166.129C52.614 166.212 52.6667 166.324 52.6667 166.441C52.6667 166.558 52.614 166.671 52.5202 166.753L48.5166 170.285C48.4228 170.368 48.2955 170.414 48.1628 170.414C48.0301 170.414 47.9029 170.368 47.809 170.285L45.8072 168.519C45.7161 168.436 45.6656 168.325 45.6668 168.209C45.6679 168.093 45.7205 167.982 45.8133 167.901C45.9061 167.819 46.0316 167.772 46.1628 167.771C46.2941 167.77 46.4205 167.815 46.5149 167.895L48.1628 169.349L51.8126 166.129C51.9064 166.046 52.0337 166 52.1664 166C52.2991 166 52.4264 166.046 52.5202 166.129Z" fill="white"/>
<circle cx="49" cy="198" r="7" fill="url(#paint4_linear_32:220)"/>
<path fill-rule="evenodd" clip-rule="evenodd" d="M52.5202 196.129C52.614 196.212 52.6667 196.324 52.6667 196.441C52.6667 196.558 52.614 196.671 52.5202 196.753L48.5166 200.285C48.4228 200.368 48.2955 200.415 48.1628 200.415C48.0301 200.415 47.9029 200.368 47.809 200.285L45.8072 198.519C45.7161 198.436 45.6656 198.325 45.6668 198.209C45.6679 198.093 45.7205 197.982 45.8133 197.901C45.9061 197.819 46.0316 197.772 46.1628 197.771C46.2941 197.77 46.4205 197.815 46.5149 197.895L48.1628 199.349L51.8126 196.129C51.9064 196.046 52.0337 196 52.1664 196C52.2991 196 52.4264 196.046 52.5202 196.129Z" fill="white"/>
<circle cx="49" cy="228" r="7" fill="url(#paint5_linear_32:220)"/>
<path fill-rule="evenodd" clip-rule="evenodd" d="M52.5202 226.129C52.614 226.212 52.6667 226.324 52.6667 226.441C52.6667 226.558 52.614 226.671 52.5202 226.753L48.5166 230.285C48.4228 230.368 48.2955 230.414 48.1628 230.414C48.0301 230.414 47.9029 230.368 47.809 230.285L45.8072 228.519C45.7161 228.436 45.6656 228.325 45.6668 228.209C45.6679 228.093 45.7205 227.982 45.8133 227.901C45.9061 227.819 46.0316 227.772 46.1628 227.771C46.2941 227.77 46.4205 227.815 46.5149 227.895L48.1628 229.349L51.8126 226.129C51.9064 226.046 52.0337 226 52.1664 226C52.2991 226 52.4264 226.046 52.5202 226.129Z" fill="white"/>
<defs>
<filter id="filter0_d_32:220" x="0" y="9" width="324" height="289" filterUnits="userSpaceOnUse" color-interpolation-filters="sRGB">
<feFlood flood-opacity="0" result="BackgroundImageFix"/>
<feColorMatrix in="SourceAlpha" type="matrix" values="0 0 0 0 0 0 0 0 0 0 0 0 0 0 0 0 0 0 127 0" result="hardAlpha"/>
<feOffset dx="2" dy="2"/>
<feGaussianBlur stdDeviation="4"/>
<feComposite in2="hardAlpha" operator="out"/>
<feColorMatrix type="matrix" values="0 0 0 0 0 0 0 0 0 0 0 0 0 0 0 0 0 0 0.12 0"/>
<feBlend mode="normal" in2="BackgroundImageFix" result="effect1_dropShadow_32:220"/>
<feBlend mode="normal" in="SourceGraphic" in2="effect1_dropShadow_32:220" result="shape"/>
</filter>
<linearGradient id="paint0_linear_32:220" x1="65" y1="16.2857" x2="253.499" y2="26.5908" gradientUnits="userSpaceOnUse">
<stop stop-color="#65529B"/>
<stop offset="1" stop-color="#775DC1"/>
</linearGradient>
<linearGradient id="paint1_linear_32:220" x1="42" y1="87.75" x2="56.0019" y2="87.9444" gradientUnits="userSpaceOnUse">
<stop stop-color="#8872CB"/>
<stop offset="1" stop-color="#A365D3"/>
</linearGradient>
<linearGradient id="paint2_linear_32:220" x1="42" y1="135.75" x2="56.0019" y2="135.944" gradientUnits="userSpaceOnUse">
<stop stop-color="#8872CB"/>
<stop offset="1" stop-color="#A365D3"/>
</linearGradient>
<linearGradient id="paint3_linear_32:220" x1="42" y1="165.75" x2="56.0019" y2="165.944" gradientUnits="userSpaceOnUse">
<stop stop-color="#8872CB"/>
<stop offset="1" stop-color="#A365D3"/>
</linearGradient>
<linearGradient id="paint4_linear_32:220" x1="42" y1="195.75" x2="56.0019" y2="195.944" gradientUnits="userSpaceOnUse">
<stop stop-color="#8872CB"/>
<stop offset="1" stop-color="#A365D3"/>
</linearGradient>
<linearGradient id="paint5_linear_32:220" x1="42" y1="225.75" x2="56.0019" y2="225.944" gradientUnits="userSpaceOnUse">
<stop stop-color="#8872CB"/>
<stop offset="1" stop-color="#A365D3"/>
</linearGradient>
</defs>
</svg>
